<svg 
 xmlns="http://www.w3.org/2000/svg"
 xmlns:xlink="http://www.w3.org/1999/xlink"
 width="21px" height="18px">
<path fill="rgb(255, 255, 255)"
 d="M20.882,2.609 C20.140,2.939 19.341,3.161 18.504,3.262 C19.360,2.749 20.016,1.937 20.325,0.972 C19.524,1.446 18.639,1.789 17.695,1.975 C16.941,1.170 15.864,0.667 14.673,0.667 C12.387,0.667 10.534,2.523 10.534,4.809 C10.534,5.134 10.569,5.448 10.640,5.751 C7.199,5.578 4.149,3.932 2.106,1.424 C1.750,2.038 1.545,2.749 1.545,3.508 C1.545,4.943 2.277,6.211 3.388,6.954 C2.709,6.933 2.070,6.746 1.511,6.437 L1.511,6.488 C1.511,8.495 2.938,10.169 4.834,10.548 C4.486,10.646 4.121,10.694 3.742,10.694 C3.475,10.694 3.215,10.670 2.964,10.621 C3.490,12.265 5.019,13.464 6.831,13.496 C5.414,14.606 3.628,15.268 1.689,15.268 C1.355,15.268 1.024,15.249 0.701,15.212 C2.533,16.385 4.710,17.071 7.048,17.071 C14.665,17.071 18.828,10.762 18.828,5.288 C18.828,5.109 18.824,4.930 18.817,4.753 C19.626,4.169 20.329,3.440 20.882,2.609 "/>
</svg>